<?xml version="1.0" encoding="utf-8"?>
<!-- Generator: Adobe Illustrator 28.1.0, SVG Export Plug-In . SVG Version: 6.00 Build 0)  -->
<svg version="1.1" xmlns="http://www.w3.org/2000/svg" xmlns:xlink="http://www.w3.org/1999/xlink" x="0px" y="0px"
	 viewBox="0 0 1250 703.125" style="enable-background:new 0 0 1250 703.125;" xml:space="preserve">
<style type="text/css">
	.st0{fill:#EFF1F2;}
	.st1{fill-rule:evenodd;clip-rule:evenodd;fill:#004975;}
	.st2{fill:#9DC9FF;}
	.st3{fill:#FFFFFF;}
	.st4{fill:none;stroke:#007BC0;stroke-width:4;stroke-miterlimit:10;}
	.st5{fill:none;stroke:#00A4FD;stroke-width:4;stroke-miterlimit:10;}
	.st6{fill:#E8F1FF;}
	.st7{fill:none;stroke:#E8F1FF;stroke-width:6;stroke-miterlimit:10;}
	.st8{fill-rule:evenodd;clip-rule:evenodd;fill:#00629A;}
	.st9{fill:#43464A;}
	.st10{fill:#8A8F95;}
	.st11{fill-rule:evenodd;clip-rule:evenodd;fill:#8A8F95;}
	.st12{fill:#C1C6CA;}
	.st13{fill:#D0D3D7;}
	.st14{fill:#0F3250;}
	.st15{fill-rule:evenodd;clip-rule:evenodd;fill:#D0D3D7;}
	.st16{fill:#194972;}
	.st17{fill:#383B3E;}
	.st18{fill:#A4C8F9;}
	.st19{fill:#3C94E0;}
	.st20{fill:#D3E3FB;}
	.st21{fill:#6AAEF8;}
	.st22{fill:#003E64;}
	.st23{fill:#666A6E;}
	.st24{fill:#256195;}
	.st25{fill:#00629A;}
	.st26{fill:#7EBDFF;}
	.st27{fill:none;stroke:#E8F1FF;stroke-width:5;stroke-miterlimit:10;}
	.st28{fill:#00A4FD;}
	.st29{fill:none;stroke:#E8F1FF;stroke-width:4;stroke-miterlimit:10;}
	.st30{fill:#0088D4;}
	.st31{fill:none;stroke:#E8F1FF;stroke-width:2;stroke-miterlimit:10;}
	.st32{fill-rule:evenodd;clip-rule:evenodd;fill:#007BC0;}
	.st33{fill-rule:evenodd;clip-rule:evenodd;fill:#D1E4FF;}
	.st34{fill:#007BC0;}
	.st35{fill:#D1E4FF;}
	.st36{fill:none;}
	.st37{font-family:'BoschSans-Bold';}
	.st38{font-size:13px;}
	.st39{fill:none;stroke:#00629A;stroke-width:4;stroke-miterlimit:10;}
</style>
<g id="Background">
	<rect x="0" class="st0" width="1250.88" height="703.125"/>
</g>
<g id="KI">
	<path class="st1" d="M893.19733,485.66522c-17.03998,55.38-52.19,70.29004-52.19,70.29004s-18.09998,59.63995-83.06,58.56995
		c-64.96997-1.06-75.62-30.87994-75.62-30.87994s-24.48999,6.38995-39.39996-7.46002
		c-10.62-9.85004-15.30005-20.25-17.11005-25.41998c-0.72998-2.09003-1-3.33002-1-3.33002s-0.26996,1.23999-1,3.33002
		c-1.48999,4.25-4.90997,12.03998-11.98999,20.14996c-1.51996,1.75-3.21997,3.52002-5.10999,5.27002
		c-8.63,8.01001-20.46002,9.25-28.89001,8.87c-6.15997-0.28003-10.51001-1.40997-10.51001-1.40997
		s-10.64996,29.81995-75.62,30.87994c-14.35999,0.24005-26.44-2.5-36.52997-6.89996
		c-15.58002-6.78003-26.44-17.54004-33.72003-27.48999c-9.34998-12.76001-12.81-24.17999-12.81-24.17999
		s-35.14996-14.91003-52.19-70.29004c-17.03998-55.38,19.17004-118.20996,19.17004-118.20996s-8.52002-19.17004-2.13-57.51001
		c6.38995-38.34003,47.92999-67.10004,47.92999-67.10004s-9.59003-30.88,3.19-55.37
		c7.26996-13.92999,21.08002-24.07996,31.64001-30.22998c8.00995-4.67999,14.14996-7.04999,14.14996-7.04999
		s1.87-11.19,9.64001-24.01001c7.59998-12.59003,20.88-26.76001,43.60999-33.5c52.42999-15.53998,93.35004,17.62,100.16998,23.59998
		c0.66003,0.58002,1,0.90002,1,0.90002s0.34003-0.32001,1-0.90002c6.82001-5.97998,47.75-39.13995,100.18005-23.59998
		c45.88995,13.59998,53.25,57.51001,53.25,57.51001s33.00995,12.77997,45.78998,37.27997c12.77997,24.48999,3.19,55.37,3.19,55.37
		s41.53998,28.76001,47.92999,67.10004c6.39001,38.33997-2.13,57.51001-2.13,57.51001S910.23737,430.28522,893.19733,485.66522z"/>
	<circle class="st2" cx="809.82111" cy="411.40948" r="20.97345"/>
	<g>
		<path class="st3" d="M625.81732,116.28522v437.86005h-2V116.28522c0.66003,0.58002,1,0.90002,1,0.90002
			S625.15735,116.86523,625.81732,116.28522z"/>
	</g>
	<path class="st4" d="M993.87811,342.72647h-62.23413c-19.42432,0-35.1709-15.74652-35.1709-35.17087v-47.59094
		c0-19.42435-15.74652-35.17088-35.17084-35.17088H703.03357"/>
	<path class="st5" d="M768.79761,311.63162h73.2381c19.45886,0,35.19403-15.84882,35.05396-35.30719l-0.72516-100.73477
		c-0.14008-19.45837,15.59503-35.30717,35.05396-35.30717h53.50238h26.37488"/>
	<circle class="st6" cx="809.82111" cy="411.40948" r="13.47049"/>
	<circle class="st2" cx="708.2746" cy="522.24286" r="14.56864"/>
	<circle class="st2" cx="703.03357" cy="224.79378" r="26.14216"/>
	<circle class="st2" cx="765.97766" cy="311.63162" r="34.18433"/>
	<circle class="st6" cx="708.2746" cy="522.24286" r="9.3569"/>
	<path class="st7" d="M338.88129,185.69553"/>
	<path class="st7" d="M350.24911,116.87567"/>
	<path class="st4" d="M965.11047,534.80927h-13.88324c-19.57373,0-35.44135-15.86761-35.44135-35.44135v-18.73819
		c0-19.57373-15.86768-35.44138-35.44141-35.44138H686.16022"/>
	<circle class="st2" cx="686.16022" cy="445.18835" r="20.97345"/>
	<circle class="st6" cx="686.55157" cy="445.18835" r="14.32634"/>
	<path class="st5" d="M996.42828,342.72647H966.8028c-19.41766,0-35.15881,15.74115-35.15881,35.15884v113.02185
		c0,19.41769-15.74115,35.15881-35.15881,35.15881H785.07153"/>
	<circle class="st6" cx="766.68231" cy="311.63162" r="20.84959"/>
	<circle class="st6" cx="703.03357" cy="224.79378" r="17.49754"/>
	<circle class="st2" cx="785.07153" cy="526.06598" r="28.59334"/>
	<path class="st4" d="M733.04645,150.26756h156.08032c19.36292,0,35.05963,15.69676,35.05963,35.05968v122.33957
		c0,19.36292,15.69678,35.05966,35.05969,35.05966h37.18219h31.05719"/>
	<path class="st8" d="M487.0864,215.75127"/>
	<path class="st5" d="M969.77771,534.80927h-51.27856c-19.59259,0-35.47552-15.88293-35.47552-35.47552V396.90097
		c0-19.59262-15.88293-35.47556-35.47559-35.47556H689.36969"/>
	<circle class="st2" cx="733.04645" cy="150.26756" r="17.76395"/>
	<circle class="st2" cx="689.36969" cy="361.42542" r="17.76395"/>
	<circle class="st6" cx="733.51404" cy="150.26756" r="11.93436"/>
	<circle class="st6" cx="689.36969" cy="361.42542" r="11.93436"/>
	<circle class="st6" cx="785.07153" cy="526.06598" r="19.70702"/>
	
		<g id="Bosch_x2F_Office_x2F_People_x2F_male-working-on-computer-behind-blue_00000172402368449399216450000016226722194051519407_">
		
			<g id="male-working-on-computer-2_00000130644705914789580420000007894762772307451545_" transform="translate(0.415000, 0.780629)">
			
				<rect id="Rectangle_00000036963984359132458760000006488867949196337337_" x="311.25284" y="509.85797" class="st9" width="57.27846" height="7.74258"/>
			<polygon id="Path_00000120532132041487679390000000854832977645036467_" class="st9" points="344.8688,424.50452 
				353.15717,487.58301 354.48923,497.72144 357.09784,517.6098 391.01904,517.6098 387.73514,497.72144 386.05157,487.58301 
				375.62637,424.50452 			"/>
			<polygon id="Path_00000054225468159334918040000004978262612628891782_" class="st10" points="359.8688,424.50452 
				326.25287,487.58301 368.15717,487.58301 			"/>
			<polygon id="Path_00000121253226892718620210000007715927241416330390_" class="st11" points="58.5444,702.34436 
				61.76548,639.96478 141.21713,639.96478 144.43823,702.34436 155.87915,702.34436 146.83214,527.19318 135.39867,527.19318 
				140.62512,628.53131 62.3575,628.53131 67.59322,527.19318 56.15049,527.19318 47.10906,702.34436 			"/>
			
				<rect id="Rectangle_00000021083980399630452140000009608050262521017270_" x="-12.69096" y="515.7597" class="st12" width="323.07013" height="11.43348"/>
			<path id="Rectangle_00000040550880429463285980000012304479219771523986_" class="st10" d="M440.36066,365.19098H270.98587
				c-5.25192,0-9.5094,4.25751-9.5094,9.5094v103.38245c0,5.25192,4.25748,9.50943,9.5094,9.50943h169.37479
				c5.25189,0,9.5094-4.25751,9.5094-9.50943V374.70038C449.87006,369.44849,445.61255,365.19098,440.36066,365.19098z"/>
			<path id="Rectangle_00000055677114152783577660000014571704169432148633_" class="st13" d="M433.79288,365.19098H264.41809
				c-5.25189,0-9.5094,4.25751-9.5094,9.5094v103.38245c0,5.25192,4.25751,9.50943,9.5094,9.50943h169.37479
				c5.25189,0,9.5094-4.25751,9.5094-9.50943V374.70038C443.30228,369.44849,439.04477,365.19098,433.79288,365.19098z"/>
			<path id="Path_00000079472873939932611080000015668973974999564462_" class="st14" d="M182.92719,528.74725l0.259,0.12024
				l110.53302,41.71008c-26.16937,2.17383-34.09698,15.25391-42.72758,45.9837
				c-94.49281-18.35278-154.68515-0.63824-156.59073-52.31097l20.60063-8.32538l67.84241-27.26093L182.92719,528.74725z"/>
			<path id="Path_00000084508157649709325480000012101610441492851586_" class="st14" d="M293.71921,570.57758l-3.26541,36.43732
				l-10.54355,95.32947h-43.83496c-2.15002-44.55096-0.42055-73.82043,4.96291-93.19263
				C249.53931,578.56067,267.47583,572.84393,293.71921,570.57758z"/>
			<path id="Path_00000054243930049598723860000008960847492404359554_" class="st15" d="M69.35079,599.40179l77.81437,0.24976
				l77.81435-0.24976c-0.02042,10.65643-8.66762,19.28296-19.3241,19.27783h-3.5799l4.63652,83.66473h-12.38985l-4.63297-83.55371
				l-37.61211,0.15723l0,0h-4.91196h-4.91199l0,0l-37.61209-0.15723l-4.63297,83.55371H87.62004l4.63475-83.60925h-3.5799
				c-5.12743,0.0025-10.04541-2.03394-13.67017-5.66046C71.37994,609.44818,69.34589,604.52924,69.35079,599.40179
				L69.35079,599.40179z"/>
			<path id="Path_00000033359302190887193510000017346002051571275690_" class="st14" d="M152.78014,600.93738l20.35088,1.02679
				C165.88797,601.52014,159.10741,601.2149,152.78014,600.93738z"/>
			<path id="Path_00000059283377179365669220000001232250703058895269_" class="st16" d="M80.81205,538.58044
				c-1.35981,67.68518,29.0555,60.50684,71.96809,62.35693c6.32727,0.27753,13.10783,0.58276,20.35088,1.02679l60.70111,3.07111
				l56.00192,2.82141l40.92377-46.69604L180.6516,525.9444L80.81205,538.58044z"/>
			<polygon id="Path_00000085958438474861218300000010160169872284018072_" class="st17" points="353.15717,487.58301 
				354.48923,497.72144 387.73514,497.72144 386.05157,487.58301 			"/>
			<path id="Path_00000086670845893291056540000003819375230246057894_" class="st18" d="M314.41235,511.69879
				c-2.77512,3.08038-21.27591,2.71033-28.25998,2.30334c-8.70462-0.51807-19.42584-19.55536-19.42584-19.55536h28.77802
				L314.41235,511.69879z"/>
			<polygon id="Path_00000074400781794163999960000014107178380418741126_" class="st18" points="49.2497,515.7597 
				84.28095,515.7597 84.28095,495.30707 52.70008,495.30707 			"/>
			<path id="Path_00000087391958042333287290000012520000042818283178_" class="st19" d="M50.53549,514.50165l-0.97128-0.185
				c0,0,13.9866-84.2804,20.35088-112.02231c3.79267-16.52124,26.20637-25.35535,33.89344-28.60223
				c17.00224,3.80191,8.43639,32.59839,6.73429,42.45932c-4.0794,23.93076-10.25869,51.93173-13.45932,66.14035
				C73.43022,481.95874,55.09593,490.70963,50.53549,514.50165z"/>
			<path id="Path_00000076596792424309983450000016008112618838162824_" class="st19" d="M81.82034,481.49625
				c-3.92216,12.58054-2.62711,33.62521-32.57064,34.22647l7.34482-40.10974L81.82034,481.49625z"/>
			<path id="Path_00000020383542944916895860000015034984426489848751_" class="st20" d="M130.16293,337.7728
				c0,0,0.23126-0.57352,0.55499-1.48932c-2.97859-3.70016-11.23922-14.80063-6.68801-19.82361
				c3.42263-3.8389,8.2051,1.74835,11.19299,6.33655c0.09248-0.48102,0.19424-0.92505,0.29599-1.32281
				c0.98055-5.26349,0.74005-19.85135,0.74005-19.85135s12.7563-6.17001,25.34608-4.25519
				c5.87401,0.92505,12.32153,5.32822,14.17162,7.56683c-0.13875,5.47623-0.66603,15.99393-1.62808,21.4054
				c-0.37001,2.07211-0.79552,4.22745-1.3598,6.39203c-3.36714,13.18182-6.22554,19.53687-6.22554,19.53687
				c-3.32579,1.08884-6.77567,1.75394-10.26791,1.97958c0.26825,2.40509,0.62903,4.94894,0.92503,7.4928l0,0
				c1.2673,9.91644,2.5531,19.36108,2.5531,19.36108l-36.94609,0.45328l0,0L130.16293,337.7728z"/>
			<path id="Path_00000016077334994697191290000002780466902378338179_" class="st21" d="M91.64426,379.64935l29.51803-14.43063
				l40.10047,0.6568l26.51166,18.76904c4.52737,3.06915,7.66957,7.79239,8.75085,13.15408
				c1.70207,7.81659-0.06476,16.99298-1.56331,26.44687l-8.0941,60.22934v0.20352l-6.25328,41.26602
				c-55.15086,27.17767-99.82101,12.63605-99.82101,12.63605c-18.5008-82.39331-5.1155-119.18213,0.15724-145.0925
				C82.17395,387.46527,86.12493,382.35223,91.64426,379.64935L91.64426,379.64935z"/>
			<path id="Path_00000012455212823823252090000000578472475391148941_" class="st22" d="M118.7757,306.44171
				c1.04527-38.03766,36.40955-32.96841,40.42422-26.32663c12.52504-5.63351,35.71579,12.46951,16.5027,26.0676
				c-2.01785-2.44223-4.7211-4.22397-7.76106-5.11545c-0.1665,4.62518-0.86955,13.34833-2.25711,22.76523
				c-1.67432,11.40573-9.65741,11.711-15.93845,24.60605c-0.83252,1.72058-2.98785,1.97034-4.83794,2.43286
				c-2.89537,0.73077-9.38918,1.05453-11.72026,0.40701c-2.3311-0.64752-4.20892-1.36905-4.56044-3.70016
				C126.69403,334.73868,118.33167,322.42639,118.7757,306.44171z"/>
			<path id="Path_00000083798401499204422510000007914702960286042021_" class="st20" d="M164.3894,336.34824
				c-2.09985-3.77417-7.95535-15.07816-5.05074-19.96237c2.18311-3.70013,5.55023,1.97034,7.67784,6.63254L164.3894,336.34824z"/>
			<path id="Path_00000076581958403679890380000000919560420921020055_" class="st18" d="M156.2953,354.28476l-0.50879-3.22839
				l10.7767,1.21182C163.23903,353.3696,159.78912,354.04715,156.2953,354.28476L156.2953,354.28476z"/>
			
				<rect id="Rectangle_00000017495259369279137080000003308453795660411523_" x="229.78973" y="504.43719" class="st23" width="118.14608" height="11.32249"/>
			<path id="Path_00000051379065054304727500000006819588970972801714_" class="st24" d="M330.73929,561.15137l14.31586,141.19299
				h-46.80524c-8.27814-36.49823-13.75458-74.54498-8.43436-94.48767C297.46561,579.1712,330.73929,561.15137,330.73929,561.15137z"
				/>
			<path id="Path_00000008125751356559304150000002191265976908252323_" class="st19" d="M157.6736,409.80566h39.33269
				c-0.39777,4.62518-1.24878,9.50015-2.02583,14.43985l-8.0941,60.22934v0.20352l-6.25325,41.26602
				c-9.31355,4.61523-19.04581,8.33221-29.06477,11.10046C151.34633,502.8924,155.30551,440.60022,157.6736,409.80566z"/>
			<path id="Path_00000083050988401462869890000017252480395938490002_" class="st18" d="M161.78078,515.74121
				c0,0-5.47624-79.97894-4.11642-105.93555c0.42554-8.16812,5.93877-25.62363,23.43126-25.48569
				c17.03,0.13959,16.13271,17.52109,16.13271,25.48569c0,24.97607-2.31261,105.93555-2.31261,105.93555H161.78078z"/>
			<path id="Path_00000125590793515217657650000015350776242051858057_" class="st20" d="M212.02895,488.36926
				c15.72568,1.23956,30.52632,6.79907,47.65804,10.2402l7.03955-4.16269h28.77802c0,0-10.17545,10.88773-15.72568,15.62393
				c-6.66031,5.689-22.20096,5.689-28.06572,5.689h-89.91388c18.84306-0.68451,33.80096-14.06061,33.80096-28.10269
				C201.24298,487.56448,206.93198,487.97153,212.02895,488.36926z"/>
			<path id="Shape_00000029003927606833160370000001012128789626871681_" class="st10" d="M500.86337,515.7597v11.43347h-47.44528
				l9.04141,175.15118h-11.43503l-3.22141-62.38879h-80.99646l-3.22156,62.38879h-11.4444l9.04172-175.15118h-50.81244V515.7597
				H500.86337z M447.21106,628.53131l-5.23572-101.33813h-69.37799l-5.22647,101.33813H447.21106z"/>
			
				<rect id="Rectangle_00000146468147455532211210000004420516207363172499_" x="396.24136" y="384.3208" class="st13" width="39.06443" height="39.06443"/>
			
				<rect id="Rectangle_00000158741706529839870540000010302335862734637469_" x="286.21713" y="381.59195" class="st13" width="32.78341" height="30.22105"/>
		</g>
	</g>
	<path class="st25" d="M327.98895,394.94336h-26.32318v-4.38718h26.32318V394.94336z M325.79535,399.33057h-21.936v4.38721h21.936
		V399.33057z M327.98895,380.685c0-0.84189,1.24271-1.83936,1.98526-2.43515c0.17752-0.14246,0.34006-0.27338,0.48038-0.39227
		c0.25519-0.21664,0.50449-0.42389,0.75031-0.6282c0.71362-0.59338,1.4516-1.2066,2.21634-1.95288
		c4.98434-4.86221,7.72928-11.33109,7.72928-18.215c0-6.88364-2.74493-13.35251-7.729-18.21475
		c-4.9696-4.84775-11.57315-7.51773-18.59442-7.51773c-7.02103,0-13.6243,2.66998-18.59363,7.51776
		c-4.98434,4.86221-7.72928,11.33109-7.72928,18.21472c0,6.88391,2.74493,13.35278,7.72928,18.215
		c0.76474,0.74631,1.50272,1.3595,2.21634,1.95288c0.24582,0.20432,0.49512,0.41159,0.75003,0.62793
		c0.14059,0.11917,0.30313,0.25012,0.48065,0.39255c0.74255,0.59579,1.98529,1.59326,1.98529,2.43515v5.48398h4.38718V380.685
		c0-2.94632-2.35934-4.83975-3.62671-5.85675c-0.14273-0.11459-0.27393-0.21957-0.38721-0.3157
		c-0.26697-0.22653-0.52777-0.44342-0.78482-0.6571c-0.67749-0.56314-1.3172-1.09494-1.95743-1.71939
		c-4.13068-4.02972-6.40543-9.38303-6.40543-15.07455c0-5.69125,2.27475-11.04459,6.40567-15.07428
		c4.14514-4.04391,9.66074-6.271,15.53058-6.271c5.8696,0,11.38492,2.22708,15.53033,6.271
		c4.13065,4.02969,6.4054,9.38303,6.4054,15.07428c0,5.69153-2.27475,11.04483-6.4054,15.07455
		c-0.64026,0.62445-1.27997,1.15625-1.95743,1.71939c-0.25708,0.21368-0.51788,0.43057-0.78513,0.65738
		c-0.11301,0.09586-0.2442,0.20084-0.38693,0.31543c-1.26736,1.017-3.62671,2.91043-3.62671,5.85675v5.48398h4.38721V380.685z
		 M356.4559,355.45862h-10.91818v4.38718h10.91818V355.45862z M284.11697,355.45862h-10.91818v4.38718h10.91818V355.45862z
		 M317.02094,315.97385h-4.38718v10.96799h4.38718V315.97385z M294.83057,379.96252l-3.08795-3.11688l-7.83771,7.76489
		l3.08795,3.11688L294.83057,379.96252z M345.74954,329.51913l-3.08743-3.11685l-7.90466,7.83075l3.08743,3.11688
		L345.74954,329.51913z M345.74979,384.61053l-7.83771-7.76489l-3.08795,3.11688l7.83771,7.76489L345.74979,384.61053z
		 M294.89725,334.23303l-7.90466-7.83078l-3.0874,3.11688l7.90466,7.83078L294.89725,334.23303z"/>
	<g>
		<path class="st26" d="M293.25003,235.57346c-4.89111,1.328-9.95624,2.28101-15.05438,2.83298l-3.14304,0.33995l-11.03732-19.22649
			c-3.98343-0.20169-7.95911-0.71513-11.87428-1.53322l-15.52585,15.81174l-2.95384-1.12012
			c-9.59517-3.63965-18.51292-8.74892-26.50549-15.18579l-2.46162-1.98257l5.79434-21.38483
			c-2.70016-2.97832-5.16513-6.16548-7.3624-9.51837l-22.13643,0.25438l-1.29944-2.89047
			c-2.10248-4.67838-3.84198-9.52997-5.16998-14.42108c-1.328-4.89113-2.28101-9.95625-2.83296-15.0544l-0.3401-3.1436
			l19.22643-11.03304c0.20149-3.98643,0.71545-7.96469,1.53464-11.88261l-15.81293-15.52126l1.12051-2.95455
			c3.63966-9.59517,8.74893-18.51293,15.18581-26.50549l1.98273-2.46105l21.38565,5.79288
			c2.97731-2.69928,6.16393-5.1641,9.51794-7.36166l-0.25423-22.13586l2.89047-1.29943
			c9.35449-4.20433,19.27693-6.89839,29.47548-8.00294l3.14304-0.33995l11.03748,19.22705
			c3.98328,0.20113,7.95895,0.71456,11.87503,1.53364l15.52472-15.81143l2.95438,1.11995
			c9.59372,3.63883,18.51151,8.74809,26.50549,15.18581l2.46161,1.98257L325.30716,90.269
			c2.70029,2.97886,5.16455,6.16563,7.36182,9.51852l22.13586-0.25423l1.29944,2.89047
			c2.10217,4.67725,3.84167,9.52884,5.16968,14.41995c1.32797,4.89111,2.28098,9.95625,2.83325,15.05552l0.34012,3.14362
			l-19.22675,11.03189c-0.20148,3.98642-0.7153,7.96526-1.53445,11.88318l15.81262,15.52011l-1.12039,2.95512
			c-3.63965,9.59515-8.7489,18.51294-15.18579,26.50548l-1.98273,2.46106l-21.38507-5.79305
			c-2.97849,2.69958-6.1651,5.16441-9.51797,7.36166l0.2554,22.13556l-2.89105,1.29959
			C302.99274,232.50597,298.14114,234.24547,293.25003,235.57346z"/>
		<path class="st27" d="M234.3325,161.89499c-1.90526-3.13757-3.4075-6.5918-4.41745-10.31151
			c-5.79376-21.33893,6.80807-43.33433,28.14699-49.1281c21.33893-5.79378,43.33435,6.80807,49.12811,28.14699
			c5.79379,21.33893-6.80807,43.33434-28.147,49.12811c-7.8006,2.11795-15.68893,1.77766-22.84146-0.54906"/>
		<path class="st27" d="M228.20531,101.68598c6.79805-6.97341,15.49297-12.27608,25.57175-15.01259
			c30.0551-8.16032,61.03477,9.58891,69.19508,39.64398c8.16034,30.05509-9.5889,61.03478-39.64398,69.19509
			c-30.05507,8.16032-61.03477-9.5889-69.19508-39.64398c-1.29265-4.76094-1.93517-9.54509-1.9816-14.25806"/>
	</g>
	<g>
		<path class="st28" d="M492.76315,338.95456c-2.40677-1.8938-4.69437-4.00711-6.79935-6.28098l-1.29755-1.40195l5.3479-12.28226
			c-1.33771-2.00479-2.52139-4.11816-3.53555-6.31198l-13.26437-1.8324l-0.52121-1.83636
			c-1.6925-5.96564-2.4281-12.13229-2.18631-18.32867l0.07449-1.90845l12.46051-4.89612
			c0.47153-2.383,1.12909-4.72717,1.9635-7.00122l-8.10083-10.64523l0.93369-1.67194
			c1.51151-2.70575,3.23782-5.29788,5.13159-7.70465c1.89377-2.40675,4.00711-4.69435,6.28098-6.79932l1.40219-1.29785
			l12.28015,5.34944c2.00616-1.3389,4.12097-2.52327,6.3165-3.53787l1.82974-13.26331l1.83685-0.52126
			c5.96564-1.69252,12.13232-2.4281,18.32867-2.18633l1.90826,0.07478l4.89709,12.46039
			c2.3822,0.47134,4.72614,1.12871,7.00073,1.96356l10.64502-8.10054l1.67194,0.93369
			c5.41034,3.02211,10.29291,6.86395,14.50397,11.41254l1.29755,1.40198l-5.34814,12.28252
			c1.33795,2.00452,2.52167,4.11789,3.53564,6.31247l13.26379,1.83197l0.52148,1.83658
			c1.69238,5.96463,2.42798,12.13132,2.18634,18.32867l-0.07452,1.90845l-12.46051,4.89615
			c-0.47174,2.38324-1.12933,4.72693-1.96381,7.00098l8.10059,10.64502l-0.93372,1.67194
			c-1.51105,2.7052-3.23737,5.2973-5.1311,7.70407c-1.8938,2.40677-4.00714,4.69437-6.28143,6.7999l-1.40216,1.29785
			l-12.27972-5.35001c-2.00616,1.3389-4.12122,2.52356-6.31671,3.53815l-1.82928,13.26276l-1.8371,0.52155
			c-5.96564,1.6925-12.13232,2.42807-18.32867,2.18631l-1.90826-0.0748l-4.89685-12.46017
			c-2.38275-0.47177-4.72662-1.12912-7.00067-1.96356l-10.64447,8.10101l-1.67221-0.93393
			C497.76202,342.57465,495.16989,340.84833,492.76315,338.95456z"/>
		<path class="st29" d="M546.45343,281.48065c1.05573,1.60785,1.90625,3.38901,2.50391,5.31827
			c3.42847,11.06769-2.76434,22.81912-13.83197,26.24759c-11.06769,3.4285-22.81915-2.76431-26.24762-13.832
			c-3.4285-11.06766,2.76431-22.81912,13.83197-26.24759c4.0459-1.2533,8.18317-1.22089,11.9718-0.13464"/>
		<path class="st29" d="M560.89587,293.73752c-0.12097,5.522-1.67499,11.08508-4.79578,16.11945
			c-9.30609,15.01251-29.02026,19.63846-44.03278,10.33234c-15.01254-9.30612-19.63849-29.02029-10.33237-44.03281
			c9.30612-15.01254,29.02029-19.63849,44.03281-10.33234c2.37811,1.47415,4.49554,3.20947,6.33832,5.1459"/>
	</g>
	<g>
		<path class="st30" d="M424.92566,193.39832c-1.76859-1.50165-3.44077-3.16614-4.97012-4.94701l-0.94275-1.09801l4.39545-9.14737
			c-0.95612-1.5555-1.79257-3.18886-2.49838-4.87833l-9.99014-1.76175l-0.34274-1.40495
			c-1.11288-4.5641-1.49564-9.2534-1.13766-13.93756l0.11029-1.4427l9.57156-3.35483
			c0.42422-1.79074,0.98825-3.54684,1.68414-5.24487l-5.83221-8.28778l0.75406-1.23938
			c1.2207-2.00572,2.6008-3.91936,4.10245-5.68794c1.50165-1.7686,3.16614-3.44077,4.94702-4.97015l1.09818-0.94295l9.14572,4.39655
			c1.55658-0.95697,3.19107-1.79391,4.88187-2.50002l1.75967-9.9894l1.40533-0.34277
			c4.56412-1.11288,9.25342-1.49565,13.93759-1.13766l1.4425,0.1105l3.35559,9.57148
			c1.79013,0.4241,3.54605,0.98793,5.24448,1.68419l8.2876-5.83201l1.23941,0.75406
			c4.01062,2.44067,7.59848,5.48701,10.65808,9.04946l0.94275,1.09799l-4.39563,9.14757
			c0.95627,1.55531,1.79272,3.18866,2.49841,4.87872l9.98975,1.7614l0.34293,1.40512
			c1.11282,4.56334,1.49557,9.25264,1.13766,13.93758l-0.11029,1.44269l-9.57156,3.35483
			c-0.42441,1.79094-0.98843,3.54668-1.68436,5.24469l5.832,8.28761l-0.75406,1.23938
			c-1.22034,2.00533-2.60043,3.91896-4.10208,5.68755s-3.16614,3.44075-4.94736,4.97055l-1.09818,0.94295l-9.14539-4.39696
			c-1.55658,0.95695-3.19122,1.7941-4.88202,2.50021l-1.75934,9.989l-1.40552,0.34297
			c-4.56409,1.11288-9.25339,1.49565-13.93756,1.13765l-1.44254-0.11049l-3.35538-9.57132
			c-1.79056-0.42444-3.54645-0.98828-5.24448-1.68419l-8.2872,5.83237l-1.23959-0.75424
			C428.60788,196.28008,426.69424,194.89996,424.92566,193.39832z"/>
		<path class="st31" d="M455.45053,177.37811c-1.62698,0.18115-3.3063,0.13983-5.00052-0.15048
			c-9.71933-1.66548-16.24826-10.89467-14.58279-20.61398c1.6655-9.71933,10.89468-16.24825,20.61401-14.58278
			c9.7193,1.66548,16.24823,10.89468,14.58276,20.614c-0.60883,3.55296-2.22842,6.6796-4.51321,9.13544"/>
		<path class="st31" d="M430.26608,149.91322c1.67395-4.00757,4.40872-7.63379,8.13858-10.42316
			c11.12259-8.31792,26.8822-6.04431,35.20013,5.07825s6.04431,26.8822-5.07825,35.20012
			c-11.12256,8.31793-26.8822,6.04431-35.20013-5.07825c-1.3176-1.76189-2.36945-3.64015-3.16245-5.58675"/>
	</g>
	<g>
		<rect x="284.11697" y="425.04471" class="st25" width="117.84229" height="4.5"/>
		<rect x="284.11697" y="434.95187" class="st25" width="99.82783" height="4.5"/>
		<rect x="284.11697" y="444.85904" class="st25" width="108.52177" height="4.5"/>
		<rect x="284.11697" y="454.76617" class="st25" width="92.91798" height="4.5"/>
	</g>
	<g>
		<g>
			<path id="monitor_00000136371741038196671940000015961781866370780310_" class="st32" d="M1192.79565,69.62105
				c0-2.25543-2.02368-4.06613-4.54443-4.06613H974.16235c-2.52081,0-4.54449,1.8107-4.54449,4.06613v120.33192l0,0v22.17308
				c0,2.25543,2.02368,4.06613,4.54449,4.06613h214.12427c2.52075,0,4.54456-1.8107,4.54456-4.06613v-21.76013l0,0
				L1192.79565,69.62105L1192.79565,69.62105z"/>
			<polygon id="path-5_00000167388638526803465240000000117050545439666314_" class="st33" points="976.75409,197.91365 
				1185.6593,197.91365 1185.6593,72.72672 976.75409,72.72672 			"/>
			<path id="stand_bottom_00000168823252340560124950000010291185289370908330_" class="st8" d="M1202.41382,216.19218H960.03516
				v-5.38083c0-3.52017,5.40332-6.33629,12.15753-6.33629h217.9671c6.75415,0,12.15759,2.81612,12.15759,6.33629v5.38083H1202.41382
				z"/>
		</g>
		<g>
			<rect x="1013.99939" y="89.71677" class="st25" width="134.45015" height="89.86275"/>
			<polygon class="st34" points="1013.99939,127.71502 1037.00439,109.56349 1082.60706,145.54507 1102.37109,129.95073 
				1148.39136,166.26178 1148.39136,179.5795 1013.99945,179.57953 			"/>
			<circle class="st34" cx="1123.07983" cy="110.531" r="11.06636"/>
		</g>
	</g>
	<g>
		<g>
			<rect x="1009.44751" y="290.76617" class="st35" width="138.04855" height="103.26991"/>
			<g>
				<path class="st34" d="M1145.73376,288.65433h-133.2915c-3.14008,0-5.68555,2.52521-5.68555,5.64026v98.46283
					c0,3.11502,2.54547,5.64026,5.68555,5.64026h133.2915c3.14001,0,5.68555-2.52524,5.68555-5.64026v-98.46283
					C1151.41931,291.17953,1148.87378,288.65433,1145.73376,288.65433z M1147.02271,391.3222
					c0,1.49884-1.22485,2.71387-2.7356,2.71387h-130.39819c-1.5108,0-2.7356-1.21503-2.7356-2.71387v-95.59244
					c0-1.49884,1.22479-2.71387,2.7356-2.71387h130.39819c1.51074,0,2.7356,1.21503,2.7356,2.71387V391.3222z"/>
				<circle class="st34" cx="1009.03357" cy="343.47906" r="0.82722"/>
				<circle class="st34" cx="1009.03357" cy="340.03235" r="0.41397"/>
			</g>
			<path class="st25" d="M1149.83875,288.65433h-137.22858c-3.23279,0-5.85345,2.52521-5.85345,5.64026v98.46283
				c0,3.11502,2.62067,5.64026,5.85345,5.64026h137.22858c3.23279,0,5.85352-2.52524,5.85352-5.64026v-98.46283
				C1155.69226,291.17953,1153.07153,288.65433,1149.83875,288.65433z M1151.16577,391.3222
				c0,1.49884-1.26099,2.71387-2.81641,2.71387h-134.24976c-1.55548,0-2.81641-1.21503-2.81641-2.71387v-95.59244
				c0-1.49884,1.26093-2.71387,2.81641-2.71387h134.24976c1.55542,0,2.81641,1.21503,2.81641,2.71387V391.3222z"/>
			<ellipse class="st25" cx="1009.10327" cy="343.47906" rx="0.85256" ry="0.82722"/>
			<ellipse class="st25" cx="1009.10327" cy="340.03235" rx="0.42666" ry="0.41397"/>
		</g>
		<g>
			<rect x="1025.1062" y="334.776" class="st25" width="95.98589" height="4.5"/>
			<rect x="1025.1062" y="344.68317" class="st25" width="103.99032" height="4.5"/>
			<rect x="1025.1062" y="354.59033" class="st25" width="80.82652" height="4.5"/>
			<rect x="1025.1062" y="364.49747" class="st25" width="88.20509" height="4.5"/>
			<rect x="1025.1062" y="315.88077" class="st36" width="64.96106" height="13.09062"/>
			<text transform="matrix(1 0 0 1 1025.10681 328.9216)" class="st25 st37 st38">Aa Bb Cc</text>
		</g>
	</g>
	<g>
		<g>
			<path id="stand_bottom_00000090275397320185584810000010169807965509965956_" class="st32" d="M1125.48743,640.87036h-88.52576
				v-3.77081c0-2.46686,1.97339-4.44037,4.44031-4.44037h79.60974c2.46692,0,4.44043,1.97351,4.44043,4.44037v3.77081H1125.48743z"
				/>
			<polygon id="stand_00000006671483486654485300000015006396095297239984_" class="st8" points="1116.28943,632.80017 
				1046.61768,632.80017 1050.74084,608.55426 1112.16626,608.55426 			"/>
			<path id="monitor_00000153673458671870713860000015507057573167490482_" class="st32" d="M1191.96985,463.52252
				c0-2.23874-2.00879-4.03604-4.51086-4.03604H974.95483c-2.50214,0-4.51086,1.7973-4.51086,4.03604v119.44122l0,0v22.00897
				c0,2.23871,2.00873,4.03601,4.51086,4.03601h212.53931c2.5022,0,4.51086-1.7973,4.51086-4.03601v-21.59906l0,0
				L1191.96985,463.52252L1191.96985,463.52252z"/>
			<polygon id="path-5_00000001645189796425313980000003954752618013164980_" class="st33" points="977.5274,590.86548 
				1184.88635,590.86548 1184.88635,466.60519 977.5274,466.60519 			"/>
		</g>
		<g>
			<polygon class="st39" points="1114.4657,550.75488 1114.4657,508.77344 1081.59045,526.70062 1047.9762,508.77344 
				1047.9762,550.75488 1081.59045,568.43207 			"/>
			<polyline class="st39" points="1115.54761,507.21762 1081.5282,489.56219 1046.90137,507.21762 			"/>
			<line class="st39" x1="1081.59045" y1="526.70062" x2="1081.59045" y2="568.43207"/>
		</g>
	</g>
</g>
</svg>
